<svg xmlns="http://www.w3.org/2000/svg" viewBox="0 0 960 640" role="img" aria-labelledby="title desc">
  <title id="title">Asset planning visual</title>
  <desc id="desc">A calm corporate illustration of documents, planning lines, and protected assets.</desc>
  <defs>
    <linearGradient id="bg" x1="0" x2="1" y1="0" y2="1">
      <stop offset="0" stop-color="#fff8eb"/>
      <stop offset="1" stop-color="#e9f2f8"/>
    </linearGradient>
    <linearGradient id="gold" x1="0" x2="1">
      <stop offset="0" stop-color="#f9b352"/>
      <stop offset="1" stop-color="#ffd083"/>
    </linearGradient>
    <filter id="shadow" x="-20%" y="-20%" width="140%" height="140%">
      <feDropShadow dx="0" dy="24" stdDeviation="22" flood-color="#103f68" flood-opacity=".18"/>
    </filter>
  </defs>
  <rect width="960" height="640" rx="28" fill="url(#bg)"/>
  <circle cx="174" cy="152" r="88" fill="#3b424a" opacity=".13"/>
  <circle cx="740" cy="142" r="128" fill="#0f5f9f" opacity=".13"/>
  <path d="M0 478c148-78 248-42 352 0s204 82 336 16 192-120 272-76v222H0z" fill="#0f5f9f" opacity=".12"/>
  <g filter="url(#shadow)">
    <rect x="244" y="132" width="390" height="388" rx="22" fill="#fff"/>
    <rect x="292" y="188" width="168" height="16" rx="8" fill="#103f68"/>
    <rect x="292" y="238" width="288" height="12" rx="6" fill="#d6dde3"/>
    <rect x="292" y="276" width="250" height="12" rx="6" fill="#d6dde3"/>
    <rect x="292" y="314" width="286" height="12" rx="6" fill="#d6dde3"/>
    <rect x="292" y="384" width="132" height="58" rx="8" fill="url(#gold)"/>
    <path d="M482 392h58v42h-58z" fill="#0f5f9f"/>
    <path d="M510 348l78 44-78 44-78-44z" fill="#103f68"/>
  </g>
  <g fill="none" stroke="#f9b352" stroke-width="10" stroke-linecap="round">
    <path d="M164 390c48-40 94-54 154-36"/>
    <path d="M666 314c58-16 102 2 132 52"/>
  </g>
  <g fill="#103f68">
    <circle cx="154" cy="404" r="12"/>
    <circle cx="812" cy="382" r="12"/>
  </g>
</svg>
