<svg xmlns="http://www.w3.org/2000/svg" viewBox="0 0 960 640" role="img" aria-labelledby="title desc">
  <title id="title">Estate administration support visual</title>
  <desc id="desc">A refined illustration of organised documents and institutional process support.</desc>
  <defs>
    <linearGradient id="bg" x1="0" x2="1" y1="0" y2="1">
      <stop offset="0" stop-color="#f3f6f8"/>
      <stop offset="1" stop-color="#fff4df"/>
    </linearGradient>
    <filter id="shadow" x="-20%" y="-20%" width="140%" height="140%">
      <feDropShadow dx="0" dy="24" stdDeviation="20" flood-color="#103f68" flood-opacity=".18"/>
    </filter>
  </defs>
  <rect width="960" height="640" rx="28" fill="url(#bg)"/>
  <rect x="82" y="96" width="150" height="448" rx="75" fill="#3b424a" opacity=".13"/>
  <rect x="720" y="74" width="116" height="492" rx="58" fill="#0f5f9f" opacity=".12"/>
  <g filter="url(#shadow)">
    <rect x="242" y="126" width="356" height="410" rx="20" fill="#fff"/>
    <rect x="302" y="186" width="208" height="16" rx="8" fill="#103f68"/>
    <rect x="302" y="238" width="236" height="12" rx="6" fill="#d6dde3"/>
    <rect x="302" y="274" width="178" height="12" rx="6" fill="#d6dde3"/>
    <rect x="302" y="310" width="222" height="12" rx="6" fill="#d6dde3"/>
    <rect x="302" y="388" width="92" height="92" rx="46" fill="#fff4df" stroke="#f9b352" stroke-width="12"/>
    <path d="M333 431l22 22 52-64" fill="none" stroke="#0f5f9f" stroke-width="14" stroke-linecap="round" stroke-linejoin="round"/>
  </g>
  <g filter="url(#shadow)">
    <rect x="522" y="234" width="188" height="236" rx="18" fill="#103f68"/>
    <rect x="558" y="278" width="118" height="12" rx="6" fill="#fff" opacity=".82"/>
    <rect x="558" y="316" width="88" height="12" rx="6" fill="#fff" opacity=".44"/>
    <rect x="558" y="380" width="96" height="46" rx="8" fill="#f9b352"/>
  </g>
  <path d="M168 440h92M704 184h88M704 214h54" stroke="#f9b352" stroke-width="11" stroke-linecap="round"/>
</svg>
